<svg width="18" height="18" viewBox="0 0 18 18" fill="none" xmlns="http://www.w3.org/2000/svg">
<path d="M9 1.5C4.86 1.5 1.5 4.86 1.5 9C1.5 13.14 4.86 16.5 9 16.5C13.14 16.5 16.5 13.14 16.5 9C16.5 4.86 13.14 1.5 9 1.5ZM11.625 9.5625H7.7325L9.0225 10.8525C9.24 11.07 9.24 11.43 9.0225 11.6475C8.91 11.76 8.7675 11.8125 8.625 11.8125C8.4825 11.8125 8.34 11.76 8.2275 11.6475L5.9775 9.3975C5.76 9.18 5.76 8.82 5.9775 8.6025L8.2275 6.3525C8.445 6.135 8.805 6.135 9.0225 6.3525C9.24 6.57 9.24 6.93 9.0225 7.1475L7.7325 8.4375H11.625C11.9325 8.4375 12.1875 8.6925 12.1875 9C12.1875 9.3075 11.9325 9.5625 11.625 9.5625Z" fill="#6750A4"/>
</svg>
