<svg width="10" height="10" viewBox="0 0 10 10" fill="none" xmlns="http://www.w3.org/2000/svg">
<path d="M3.9876 7.84147C3.90843 7.84147 3.82926 7.8123 3.76676 7.7498L1.2376 5.22064C1.11676 5.0998 1.11676 4.8998 1.2376 4.77897L3.76676 2.2498C3.8876 2.12897 4.0876 2.12897 4.20843 2.2498C4.32926 2.37064 4.32926 2.57064 4.20843 2.69147L1.9001 4.9998L4.20843 7.30814C4.32926 7.42897 4.32926 7.62897 4.20843 7.7498C4.1501 7.8123 4.06676 7.84147 3.9876 7.84147Z" fill="#292D32"/>
<path d="M8.54155 5.3125H1.52905C1.35822 5.3125 1.21655 5.17083 1.21655 5C1.21655 4.82917 1.35822 4.6875 1.52905 4.6875H8.54155C8.71239 4.6875 8.85405 4.82917 8.85405 5C8.85405 5.17083 8.71239 5.3125 8.54155 5.3125Z" fill="#292D32"/>
</svg>
