<svg width="16" height="17" viewBox="0 0 16 17" fill="none" xmlns="http://www.w3.org/2000/svg">
<path d="M14.6875 10.7188C14.6875 13.2584 12.6334 15.3125 10.0938 15.3125L10.7828 14.1641" fill="#FFFBFE"/>
<path d="M14.6875 10.7188C14.6875 13.2584 12.6334 15.3125 10.0938 15.3125L10.7828 14.1641" fill="#6750A4" fill-opacity="0.11"/>
<path d="M14.6875 10.7188C14.6875 13.2584 12.6334 15.3125 10.0938 15.3125L10.7828 14.1641" stroke="#EADDFF" stroke-width="1.3125" stroke-linecap="round" stroke-linejoin="round"/>
<path d="M1.5625 6.78125C1.5625 4.24156 3.61656 2.1875 6.15625 2.1875L5.46719 3.33594" stroke="#EADDFF" stroke-width="1.3125" stroke-linecap="round" stroke-linejoin="round"/>
<path d="M14.6875 3.63125V3.70344C14.6875 3.88719 14.5431 4.03156 14.3594 4.03156H8.45312C8.26937 4.03156 8.125 3.88719 8.125 3.70344V3.63125C8.125 2.47625 8.41375 2.1875 9.58188 2.1875H13.2306C14.3988 2.1875 14.6875 2.47625 14.6875 3.63125Z" fill="#EADDFF"/>
<path d="M8.45312 4.68774C8.26937 4.68774 8.125 4.83212 8.125 5.01587V5.67212V6.32181C8.125 7.47681 8.41375 7.76556 9.58188 7.76556H13.2306C14.3988 7.76556 14.6875 7.47681 14.6875 6.32181V5.67212V5.01587C14.6875 4.83212 14.5431 4.68774 14.3594 4.68774H8.45312Z" fill="#EADDFF"/>
<path d="M8.125 11.1781V11.2503C8.125 11.4341 7.98063 11.5784 7.79688 11.5784H1.89062C1.70687 11.5784 1.5625 11.4341 1.5625 11.2503V11.1781C1.5625 10.0231 1.85125 9.73438 3.01937 9.73438H6.66812C7.83625 9.73438 8.125 10.0231 8.125 11.1781Z" fill="#EADDFF"/>
<path d="M1.89062 12.2346C1.70687 12.2346 1.5625 12.379 1.5625 12.5627V13.219V13.8687C1.5625 15.0237 1.85125 15.3124 3.01937 15.3124H6.66812C7.83625 15.3124 8.125 15.0237 8.125 13.8687V13.219V12.5627C8.125 12.379 7.98063 12.2346 7.79688 12.2346H1.89062Z" fill="#EADDFF"/>
</svg>
