<svg width="19" height="18" viewBox="0 0 19 18" fill="none" xmlns="http://www.w3.org/2000/svg">
<path d="M12.8095 1.5H6.52449C3.79449 1.5 2.16699 3.1275 2.16699 5.8575V12.135C2.16699 14.8725 3.79449 16.5 6.52449 16.5H12.802C15.532 16.5 17.1595 14.8725 17.1595 12.1425V5.8575C17.167 3.1275 15.5395 1.5 12.8095 1.5ZM13.6045 9.2475C13.6045 9.555 13.3495 9.81 13.042 9.81C12.7345 9.81 12.4795 9.555 12.4795 9.2475V6.9825L6.68949 12.7725C6.57699 12.885 6.43449 12.9375 6.29199 12.9375C6.14949 12.9375 6.00699 12.885 5.89449 12.7725C5.67699 12.555 5.67699 12.195 5.89449 11.9775L11.6845 6.1875H9.41949C9.11199 6.1875 8.85699 5.9325 8.85699 5.625C8.85699 5.3175 9.11199 5.0625 9.41949 5.0625H13.042C13.3495 5.0625 13.6045 5.3175 13.6045 5.625V9.2475Z" fill="#E6E1E5"/>
</svg>
