<svg width="24" height="24" viewBox="0 0 24 24" fill="none" xmlns="http://www.w3.org/2000/svg">
<path d="M16.19 2.00012H7.81C4.17 2.00012 2 4.17012 2 7.81012V16.1801C2 19.8301 4.17 22.0001 7.81 22.0001H16.18C19.82 22.0001 21.99 19.8301 21.99 16.1901V7.81012C22 4.17012 19.83 2.00012 16.19 2.00012ZM17.53 7.53012L9.81 15.2501H12.83C13.24 15.2501 13.58 15.5901 13.58 16.0001C13.58 16.4101 13.24 16.7501 12.83 16.7501H8C7.59 16.7501 7.25 16.4101 7.25 16.0001V11.1701C7.25 10.7601 7.59 10.4201 8 10.4201C8.41 10.4201 8.75 10.7601 8.75 11.1701V14.1901L16.47 6.47012C16.62 6.32012 16.81 6.25012 17 6.25012C17.19 6.25012 17.38 6.32012 17.53 6.47012C17.82 6.76012 17.82 7.24012 17.53 7.53012Z" fill="#E6E1E5"/>
</svg>
