<svg width="248" height="66" viewBox="0 0 248 66" fill="none" xmlns="http://www.w3.org/2000/svg">
<path d="M120.909 37.5825C120.909 37.5825 116.675 44.5131 120.909 48.6176C134.138 61.4439 187.598 48.6176 232.058 48.6176" stroke="#625B71" stroke-width="2"/>
<ellipse cx="231.904" cy="49.3334" rx="5.84616" ry="6.02332" fill="#625B71"/>
<ellipse cx="123.721" cy="33.0233" rx="5.84616" ry="6.02332" fill="white"/>
<path d="M137.771 28.4921V37.0233H136.64V28.4921H137.771ZM141.147 32.037V37.0233H140.063V30.6835H141.088L141.147 32.037ZM140.889 33.6132L140.438 33.5956C140.442 33.162 140.506 32.7616 140.631 32.3944C140.756 32.0233 140.932 31.701 141.159 31.4276C141.385 31.1542 141.655 30.9432 141.967 30.7948C142.284 30.6425 142.633 30.5663 143.016 30.5663C143.329 30.5663 143.61 30.6093 143.86 30.6952C144.11 30.7772 144.323 30.91 144.499 31.0936C144.678 31.2772 144.815 31.5155 144.909 31.8085C145.003 32.0975 145.049 32.451 145.049 32.869V37.0233H143.96V32.8573C143.96 32.5253 143.911 32.2596 143.813 32.0604C143.715 31.8573 143.573 31.7108 143.385 31.621C143.198 31.5272 142.967 31.4803 142.694 31.4803C142.424 31.4803 142.178 31.537 141.956 31.6503C141.737 31.7635 141.547 31.9198 141.387 32.119C141.231 32.3182 141.108 32.5468 141.018 32.8046C140.932 33.0585 140.889 33.328 140.889 33.6132ZM153.554 28.4921V37.0233H152.441V28.4921H153.554ZM156.297 28.4921V29.4178H149.705V28.4921H156.297ZM158.437 31.6796V37.0233H157.353V30.6835H158.408L158.437 31.6796ZM160.417 30.6483L160.412 31.6561C160.322 31.6366 160.236 31.6249 160.154 31.621C160.076 31.6132 159.986 31.6093 159.884 31.6093C159.634 31.6093 159.413 31.6483 159.222 31.7264C159.031 31.8046 158.869 31.9139 158.736 32.0546C158.603 32.1952 158.497 32.3632 158.419 32.5585C158.345 32.7499 158.296 32.9608 158.273 33.1913L157.968 33.3671C157.968 32.9843 158.005 32.6249 158.079 32.2889C158.158 31.953 158.277 31.6561 158.437 31.3983C158.597 31.1366 158.8 30.9335 159.046 30.7889C159.296 30.6405 159.593 30.5663 159.937 30.5663C160.015 30.5663 160.105 30.576 160.206 30.5956C160.308 30.6112 160.378 30.6288 160.417 30.6483ZM165.323 35.9393V32.6757C165.323 32.4257 165.272 32.2089 165.171 32.0253C165.073 31.8378 164.925 31.6932 164.726 31.5917C164.526 31.4901 164.28 31.4393 163.987 31.4393C163.714 31.4393 163.474 31.4862 163.267 31.58C163.063 31.6737 162.903 31.7968 162.786 31.9491C162.673 32.1014 162.616 32.2655 162.616 32.4413H161.532C161.532 32.2147 161.591 31.9901 161.708 31.7675C161.825 31.5448 161.993 31.3436 162.212 31.1639C162.435 30.9803 162.7 30.8358 163.009 30.7303C163.321 30.621 163.669 30.5663 164.052 30.5663C164.513 30.5663 164.919 30.6444 165.271 30.8007C165.626 30.9569 165.903 31.1932 166.103 31.5096C166.306 31.8221 166.407 32.2147 166.407 32.6874V35.6405C166.407 35.8514 166.425 36.076 166.46 36.3143C166.499 36.5526 166.556 36.7577 166.63 36.9296V37.0233H165.499C165.444 36.8983 165.401 36.7323 165.37 36.5253C165.339 36.3143 165.323 36.119 165.323 35.9393ZM165.511 33.1796L165.522 33.9413H164.427C164.118 33.9413 163.843 33.9667 163.601 34.0175C163.358 34.0643 163.155 34.1366 162.991 34.2343C162.827 34.3319 162.702 34.455 162.616 34.6034C162.53 34.7479 162.487 34.9178 162.487 35.1132C162.487 35.3124 162.532 35.494 162.622 35.6581C162.712 35.8221 162.847 35.953 163.026 36.0507C163.21 36.1444 163.435 36.1913 163.7 36.1913C164.032 36.1913 164.325 36.121 164.579 35.9803C164.833 35.8397 165.034 35.6678 165.183 35.4647C165.335 35.2616 165.417 35.0643 165.429 34.8729L165.892 35.3944C165.864 35.5585 165.79 35.7401 165.669 35.9393C165.548 36.1385 165.386 36.33 165.183 36.5135C164.983 36.6932 164.745 36.8436 164.468 36.9647C164.194 37.0819 163.886 37.1405 163.542 37.1405C163.112 37.1405 162.735 37.0565 162.411 36.8885C162.091 36.7206 161.841 36.496 161.661 36.2147C161.485 35.9296 161.397 35.6112 161.397 35.2596C161.397 34.9198 161.464 34.621 161.597 34.3632C161.729 34.1014 161.921 33.8846 162.171 33.7128C162.421 33.537 162.722 33.4042 163.073 33.3143C163.425 33.2245 163.817 33.1796 164.251 33.1796H165.511ZM169.596 32.037V37.0233H168.512V30.6835H169.538L169.596 32.037ZM169.338 33.6132L168.887 33.5956C168.891 33.162 168.956 32.7616 169.081 32.3944C169.206 32.0233 169.381 31.701 169.608 31.4276C169.835 31.1542 170.104 30.9432 170.417 30.7948C170.733 30.6425 171.083 30.5663 171.465 30.5663C171.778 30.5663 172.059 30.6093 172.309 30.6952C172.559 30.7772 172.772 30.91 172.948 31.0936C173.128 31.2772 173.264 31.5155 173.358 31.8085C173.452 32.0975 173.499 32.451 173.499 32.869V37.0233H172.409V32.8573C172.409 32.5253 172.36 32.2596 172.262 32.0604C172.165 31.8573 172.022 31.7108 171.835 31.621C171.647 31.5272 171.417 31.4803 171.143 31.4803C170.874 31.4803 170.628 31.537 170.405 31.6503C170.186 31.7635 169.997 31.9198 169.837 32.119C169.68 32.3182 169.557 32.5468 169.467 32.8046C169.381 33.0585 169.338 33.328 169.338 33.6132ZM179.237 35.3417C179.237 35.1854 179.201 35.0409 179.131 34.9081C179.065 34.7714 178.926 34.6483 178.715 34.5389C178.508 34.4257 178.196 34.328 177.778 34.246C177.426 34.1718 177.108 34.0839 176.822 33.9823C176.541 33.8807 176.301 33.7577 176.102 33.6132C175.906 33.4686 175.756 33.2987 175.651 33.1034C175.545 32.9081 175.492 32.6796 175.492 32.4178C175.492 32.1678 175.547 31.9315 175.656 31.7089C175.77 31.4862 175.928 31.2889 176.131 31.1171C176.338 30.9452 176.586 30.8104 176.875 30.7128C177.164 30.6151 177.487 30.5663 177.842 30.5663C178.35 30.5663 178.783 30.6561 179.143 30.8358C179.502 31.0155 179.778 31.2557 179.969 31.5565C180.16 31.8534 180.256 32.1835 180.256 32.5468H179.172C179.172 32.371 179.119 32.201 179.014 32.037C178.912 31.869 178.762 31.7303 178.563 31.621C178.367 31.5116 178.127 31.4569 177.842 31.4569C177.541 31.4569 177.297 31.5038 177.11 31.5975C176.926 31.6874 176.791 31.8026 176.705 31.9432C176.623 32.0839 176.582 32.2323 176.582 32.3885C176.582 32.5057 176.602 32.6112 176.641 32.705C176.684 32.7948 176.758 32.8788 176.863 32.9569C176.969 33.0311 177.117 33.1014 177.309 33.1678C177.5 33.2343 177.744 33.3007 178.041 33.3671C178.561 33.4843 178.988 33.6249 179.324 33.7889C179.66 33.953 179.91 34.1542 180.074 34.3925C180.238 34.6307 180.321 34.9198 180.321 35.2596C180.321 35.537 180.262 35.7909 180.145 36.0214C180.031 36.2518 179.865 36.451 179.647 36.619C179.432 36.7831 179.174 36.912 178.873 37.0057C178.576 37.0956 178.242 37.1405 177.871 37.1405C177.313 37.1405 176.84 37.0409 176.453 36.8417C176.067 36.6425 175.774 36.3846 175.574 36.0682C175.375 35.7518 175.276 35.4178 175.276 35.0663H176.365C176.381 35.3632 176.467 35.5995 176.623 35.7753C176.779 35.9471 176.971 36.0702 177.197 36.1444C177.424 36.2147 177.649 36.2499 177.871 36.2499C178.168 36.2499 178.416 36.2108 178.615 36.1327C178.819 36.0546 178.973 35.9471 179.078 35.8104C179.184 35.6737 179.237 35.5175 179.237 35.3417ZM183.322 30.6835V37.0233H182.232V30.6835H183.322ZM182.15 29.0018C182.15 28.826 182.203 28.6776 182.308 28.5565C182.418 28.4354 182.578 28.3749 182.789 28.3749C182.996 28.3749 183.154 28.4354 183.263 28.5565C183.377 28.6776 183.433 28.826 183.433 29.0018C183.433 29.1698 183.377 29.3143 183.263 29.4354C183.154 29.5526 182.996 29.6112 182.789 29.6112C182.578 29.6112 182.418 29.5526 182.308 29.4354C182.203 29.3143 182.15 29.1698 182.15 29.0018ZM188.117 30.6835V31.5155H184.689V30.6835H188.117ZM185.849 29.1425H186.933V35.453C186.933 35.6678 186.966 35.83 187.033 35.9393C187.099 36.0487 187.185 36.121 187.29 36.1561C187.396 36.1913 187.509 36.2089 187.63 36.2089C187.72 36.2089 187.814 36.201 187.912 36.1854C188.013 36.1659 188.089 36.1503 188.14 36.1385L188.146 37.0233C188.06 37.0507 187.947 37.076 187.806 37.0995C187.669 37.1268 187.503 37.1405 187.308 37.1405C187.042 37.1405 186.798 37.0878 186.576 36.9823C186.353 36.8768 186.175 36.701 186.042 36.455C185.913 36.205 185.849 35.869 185.849 35.4471V29.1425Z" fill="white"/>
<ellipse cx="15.8462" cy="16.7133" rx="5.84615" ry="6.02333" fill="white"/>
<path d="M15.6924 17.4004C59.6943 17.4004 113.509 4.63869 126.816 17.4004C131.103 21.5115 126.816 28.4604 126.816 28.4604" stroke="white" stroke-width="2"/>
</svg>
