<svg width="20" height="21" viewBox="0 0 20 21" fill="none" xmlns="http://www.w3.org/2000/svg">
<path d="M13.492 2.21332H6.50866C3.47533 2.21332 1.66699 4.02165 1.66699 7.05498V14.03C1.66699 17.0717 3.47533 18.88 6.50866 18.88H13.4837C16.517 18.88 18.3253 17.0717 18.3253 14.0383V7.05498C18.3337 4.02165 16.5253 2.21332 13.492 2.21332ZM5.83366 11.6383C5.23366 11.6383 4.74199 11.1467 4.74199 10.5467C4.74199 9.94665 5.23366 9.45498 5.83366 9.45498C6.43366 9.45498 6.92533 9.94665 6.92533 10.5467C6.92533 11.1467 6.43366 11.6383 5.83366 11.6383ZM10.0003 11.6383C9.40033 11.6383 8.90866 11.1467 8.90866 10.5467C8.90866 9.94665 9.40033 9.45498 10.0003 9.45498C10.6003 9.45498 11.092 9.94665 11.092 10.5467C11.092 11.1467 10.6003 11.6383 10.0003 11.6383ZM14.167 11.6383C13.567 11.6383 13.0753 11.1467 13.0753 10.5467C13.0753 9.94665 13.567 9.45498 14.167 9.45498C14.767 9.45498 15.2587 9.94665 15.2587 10.5467C15.2587 11.1467 14.767 11.6383 14.167 11.6383Z" fill="#B3261E"/>
</svg>
