<svg width="19" height="18" viewBox="0 0 19 18" fill="none" xmlns="http://www.w3.org/2000/svg">
<path d="M16.2266 6.99682L16.2266 6.99673C14.5289 4.32895 12.0658 2.82251 9.5 2.82251C8.21519 2.82251 6.9627 3.19753 5.81378 3.90277C4.6646 4.61566 3.62558 5.65973 2.77336 6.99682H16.2266ZM16.2266 6.99682C16.5705 7.53673 16.75 8.26173 16.75 8.99907C16.75 9.73649 16.5705 10.4593 16.227 10.9951L16.2267 10.9956C15.3744 12.3328 14.3354 13.3769 13.1862 14.0898C12.0373 14.795 10.7848 15.17 9.5 15.17C6.93394 15.17 4.471 13.6708 2.77358 10.9961L2.77336 10.9957M16.2266 6.99682L2.77336 10.9957M2.77336 10.9957C2.4294 10.4557 2.25 9.73252 2.25 8.99626M2.77336 10.9957L2.25 8.99626M2.25 8.99626C2.25 8.26003 2.42938 7.53689 2.77332 6.99688L2.25 8.99626ZM6.22 9.00001C6.22 10.8102 7.68153 12.28 9.5 12.28C11.3185 12.28 12.78 10.8102 12.78 9.00001C12.78 7.18984 11.3185 5.72001 9.5 5.72001C7.68153 5.72001 6.22 7.18984 6.22 9.00001Z" fill="white" stroke="#6750A4" stroke-width="0.5"/>
<path d="M7.6123 8.99998C7.6123 7.95248 8.46095 7.10498 9.4998 7.10498C10.5392 7.10498 11.3948 7.96055 11.3948 8.99998C11.3948 10.0383 10.5404 10.8875 9.4998 10.8875C8.46038 10.8875 7.6123 10.0394 7.6123 8.99998Z" fill="white" stroke="#6750A4" stroke-width="0.5"/>
</svg>
