<svg width="28" height="39" viewBox="0 0 28 39" fill="none" xmlns="http://www.w3.org/2000/svg">
<rect width="28" height="39" fill="#6750A4" fill-opacity="0.12"/>
<path d="M24 26.19L24 17.81C24 14.17 21.83 12 18.19 12L9.82 12C6.17 12 4 14.17 4 17.81L4 26.18C4 29.82 6.17 31.99 9.81 31.99L18.19 31.99C21.83 32 24 29.83 24 26.19ZM11 23.79C10.71 24.08 10.23 24.08 9.94 23.79C9.79 23.64 9.72 23.45 9.72 23.26C9.72 23.07 9.79 22.88 9.94 22.73L13.47 19.2C13.76 18.91 14.24 18.91 14.53 19.2L18.06 22.73C18.35 23.02 18.35 23.5 18.06 23.79C17.77 24.08 17.29 24.08 17 23.79L14 20.79L11 23.79Z" fill="#79747E"/>
</svg>
