<svg width="69" height="28" viewBox="0 0 69 28" fill="none" xmlns="http://www.w3.org/2000/svg">
<rect width="28" height="69" transform="translate(69) rotate(90)" fill="#CAC4D0"/>
<path d="M17.81 24L26.19 24C29.83 24 32 21.83 32 18.19L32 9.82C32 6.17 29.83 4 26.19 4L17.82 4C14.18 4 12.01 6.17 12.01 9.81L12.01 18.19C12 21.83 14.17 24 17.81 24ZM20.21 11C19.92 10.71 19.92 10.23 20.21 9.94C20.36 9.79 20.55 9.72 20.74 9.72C20.93 9.72 21.12 9.79 21.27 9.94L24.8 13.47C25.09 13.76 25.09 14.24 24.8 14.53L21.27 18.06C20.98 18.35 20.5 18.35 20.21 18.06C19.92 17.77 19.92 17.29 20.21 17L23.21 14L20.21 11Z" fill="#79747E"/>
</svg>
