<svg width="28" height="39" viewBox="0 0 28 39" fill="none" xmlns="http://www.w3.org/2000/svg">
<rect width="28" height="39" transform="translate(28 39) rotate(180)" fill="#6750A4" fill-opacity="0.12"/>
<path d="M4 12.81L4 21.19C4 24.83 6.17 27 9.81 27L18.18 27C21.83 27 24 24.83 24 21.19L24 12.82C24 9.18 21.83 7.01 18.19 7.01L9.81 7.01C6.17 7 4 9.17 4 12.81ZM17 15.21C17.29 14.92 17.77 14.92 18.06 15.21C18.21 15.36 18.28 15.55 18.28 15.74C18.28 15.93 18.21 16.12 18.06 16.27L14.53 19.8C14.24 20.09 13.76 20.09 13.47 19.8L9.94 16.27C9.65 15.98 9.65 15.5 9.94 15.21C10.23 14.92 10.71 14.92 11 15.21L14 18.21L17 15.21Z" fill="#79747E"/>
</svg>
