<svg width="69" height="28" viewBox="0 0 69 28" fill="none" xmlns="http://www.w3.org/2000/svg">
<rect width="28" height="69" transform="translate(0 28) rotate(-90)" fill="#CAC4D0"/>
<path d="M51.19 4H42.81C39.17 4 37 6.17 37 9.81V18.18C37 21.83 39.17 24 42.81 24H51.18C54.82 24 56.99 21.83 56.99 18.19V9.81C57 6.17 54.83 4 51.19 4ZM48.79 17C49.08 17.29 49.08 17.77 48.79 18.06C48.64 18.21 48.45 18.28 48.26 18.28C48.07 18.28 47.88 18.21 47.73 18.06L44.2 14.53C43.91 14.24 43.91 13.76 44.2 13.47L47.73 9.94C48.02 9.65 48.5 9.65 48.79 9.94C49.08 10.23 49.08 10.71 48.79 11L45.79 14L48.79 17Z" fill="#79747E"/>
</svg>
