<svg width="20" height="21" viewBox="0 0 20 21" fill="none" xmlns="http://www.w3.org/2000/svg">
<path d="M13.492 2.21326H6.50866C3.47533 2.21326 1.66699 4.02159 1.66699 7.05492V14.0299C1.66699 17.0716 3.47533 18.8799 6.50866 18.8799H13.4837C16.517 18.8799 18.3253 17.0716 18.3253 14.0383V7.05492C18.3337 4.02159 16.5253 2.21326 13.492 2.21326ZM13.9837 8.62992L9.25866 13.3549C9.14199 13.4716 8.98366 13.5383 8.81699 13.5383C8.65033 13.5383 8.49199 13.4716 8.37533 13.3549L6.01699 10.9966C5.77533 10.7549 5.77533 10.3549 6.01699 10.1133C6.25866 9.87159 6.65866 9.87159 6.90033 10.1133L8.81699 12.0299L13.1003 7.74659C13.342 7.50492 13.742 7.50492 13.9837 7.74659C14.2253 7.98826 14.2253 8.37992 13.9837 8.62992Z" fill="#21005D"/>
</svg>
