<svg width="19" height="18" viewBox="0 0 19 18" fill="none" xmlns="http://www.w3.org/2000/svg">
<path d="M9.5 1.5C5.3675 1.5 2 4.8675 2 9C2 13.1325 5.3675 16.5 9.5 16.5C13.6325 16.5 17 13.1325 17 9C17 4.8675 13.6325 1.5 9.5 1.5ZM13.085 7.275L8.8325 11.5275C8.7275 11.6325 8.585 11.6925 8.435 11.6925C8.285 11.6925 8.1425 11.6325 8.0375 11.5275L5.915 9.405C5.6975 9.1875 5.6975 8.8275 5.915 8.61C6.1325 8.3925 6.4925 8.3925 6.71 8.61L8.435 10.335L12.29 6.48C12.5075 6.2625 12.8675 6.2625 13.085 6.48C13.3025 6.6975 13.3025 7.05 13.085 7.275Z" fill="white"/>
</svg>
