<svg width="17" height="17" viewBox="0 0 17 17" fill="none" xmlns="http://www.w3.org/2000/svg">
<path d="M6.60938 10.5685L7.59375 11.5529L10.2188 8.92786" fill="white"/>
<path d="M6.60938 10.5685L7.59375 11.5529L10.2188 8.92786" stroke="#21005D" stroke-width="1.3125" stroke-linecap="round" stroke-linejoin="round"/>
<path d="M7.0625 4.85913H9.6875C11 4.85913 11 4.20288 11 3.54663C11 2.23413 10.3438 2.23413 9.6875 2.23413H7.0625C6.40625 2.23413 5.75 2.23413 5.75 3.54663C5.75 4.85913 6.40625 4.85913 7.0625 4.85913Z" fill="white" stroke="#21005D" stroke-width="1.3125" stroke-miterlimit="10" stroke-linecap="round" stroke-linejoin="round"/>
<path d="M11 3.55975C13.1853 3.67788 14.2812 4.48507 14.2812 7.48413V11.4216C14.2812 14.0466 13.625 15.3591 10.3438 15.3591H6.40625C3.125 15.3591 2.46875 14.0466 2.46875 11.4216V7.48413C2.46875 4.49163 3.56469 3.67788 5.75 3.55975" stroke="#21005D" stroke-width="1.3125" stroke-miterlimit="10" stroke-linecap="round" stroke-linejoin="round"/>
</svg>
