<svg width="18" height="18" viewBox="0 0 18 18" fill="none" xmlns="http://www.w3.org/2000/svg">
<path d="M10.7628 1.5H7.23781C6.45781 1.5 5.82031 2.13 5.82031 2.91V3.615C5.82031 4.395 6.45031 5.025 7.23031 5.025H10.7628C11.5428 5.025 12.1728 4.395 12.1728 3.615V2.91C12.1803 2.13 11.5428 1.5 10.7628 1.5Z" fill="white"/>
<path d="M12.9303 3.61511C12.9303 4.80761 11.9553 5.78261 10.7628 5.78261H7.23777C6.04527 5.78261 5.07027 4.80761 5.07027 3.61511C5.07027 3.19511 4.62027 2.93261 4.24527 3.12761C3.18777 3.69011 2.46777 4.80761 2.46777 6.09011V13.1476C2.46777 14.9926 3.97527 16.5001 5.82027 16.5001H12.1803C14.0253 16.5001 15.5328 14.9926 15.5328 13.1476V6.09011C15.5328 4.80761 14.8128 3.69011 13.7553 3.12761C13.3803 2.93261 12.9303 3.19511 12.9303 3.61511ZM11.5053 9.54761L8.50527 12.5476C8.39277 12.6601 8.25027 12.7126 8.10777 12.7126C7.96527 12.7126 7.82277 12.6601 7.71027 12.5476L6.58527 11.4226C6.36777 11.2051 6.36777 10.8451 6.58527 10.6276C6.80277 10.4101 7.16277 10.4101 7.38027 10.6276L8.10777 11.3551L10.7103 8.75261C10.9278 8.53511 11.2878 8.53511 11.5053 8.75261C11.7228 8.97011 11.7228 9.33011 11.5053 9.54761Z" fill="white"/>
</svg>
