<svg width="18" height="18" viewBox="0 0 18 18" fill="none" xmlns="http://www.w3.org/2000/svg">
<path d="M16.2223 10.9951L15.9148 12.3901C15.3823 14.7901 13.4998 16.5001 10.7848 16.5001H7.2148C4.4998 16.5001 2.6173 14.7901 2.0848 12.3901L1.7773 10.9951C1.6273 10.3126 2.0323 9.5401 2.6848 9.2776L3.7498 8.8501L7.8823 7.1926C8.2423 7.0501 8.6248 6.9751 8.9998 6.9751C9.3748 6.9751 9.7573 7.0501 10.1173 7.1926L14.2498 8.8501L15.3148 9.2776C15.9673 9.5401 16.3723 10.3126 16.2223 10.9951Z" fill="white"/>
<path d="M14.25 6V7.08C14.25 7.3425 13.98 7.53 13.7325 7.425L10.53 6.1425C9.5475 5.76 8.4525 5.76 7.4625 6.15L4.2675 7.4325C4.02 7.5375 3.75 7.35 3.75 7.0875V6C3.75 4.7625 4.7625 3.75 6 3.75H12C13.2375 3.75 14.25 4.7625 14.25 6Z" fill="white"/>
<path d="M10.875 3.75H7.125V2.25C7.125 1.8375 7.4625 1.5 7.875 1.5H10.125C10.5375 1.5 10.875 1.8375 10.875 2.25V3.75Z" fill="white"/>
</svg>
